<?xml version="1.0" encoding="UTF-8" standalone="no"?>
<!DOCTYPE svg PUBLIC "-//W3C//DTD SVG 1.1//EN"
 "http://www.w3.org/Graphics/SVG/1.1/DTD/svg11.dtd">
<!-- Generated by graphviz version 12.2.1 (20241206.2353)
 -->
<!-- Title: G Pages: 1 -->
<svg width="2893pt" height="116pt"
 viewBox="0.00 0.00 2892.70 116.00" xmlns="http://www.w3.org/2000/svg" xmlns:xlink="http://www.w3.org/1999/xlink">
<g id="graph0" class="graph" transform="scale(1 1) rotate(0) translate(4 112)">
<title>G</title>
<polygon fill="white" stroke="none" points="-4,4 -4,-112 2888.7,-112 2888.7,4 -4,4"/>
<!-- Introducción -->
<g id="node1" class="node">
<title>Introducción</title>
<polygon fill="none" stroke="blue" points="303.74,-108 222.74,-108 218.74,-104 218.74,-72 299.74,-72 303.74,-76 303.74,-108"/>
<polyline fill="none" stroke="blue" points="299.74,-104 218.74,-104"/>
<polyline fill="none" stroke="blue" points="299.74,-104 299.74,-72"/>
<polyline fill="none" stroke="blue" points="299.74,-104 303.74,-108"/>
<text text-anchor="middle" x="261.24" y="-84.95" font-family="Times,serif" font-size="14.00">Introducción</text>
</g>
<!-- Prólogo -->
<g id="node2" class="node">
<title>Prólogo</title>
<polygon fill="none" stroke="blue" points="380.62,-108 325.87,-108 321.87,-104 321.87,-72 376.62,-72 380.62,-76 380.62,-108"/>
<polyline fill="none" stroke="blue" points="376.62,-104 321.87,-104"/>
<polyline fill="none" stroke="blue" points="376.62,-104 376.62,-72"/>
<polyline fill="none" stroke="blue" points="376.62,-104 380.62,-108"/>
<text text-anchor="middle" x="351.24" y="-84.95" font-family="Times,serif" font-size="14.00">Prólogo</text>
</g>
<!-- El experimento -->
<g id="node3" class="node">
<title>El experimento</title>
<ellipse fill="none" stroke="black" cx="68.24" cy="-18" rx="68.24" ry="18"/>
<text text-anchor="middle" x="68.24" y="-12.95" font-family="Times,serif" font-size="14.00">El experimento</text>
</g>
<!-- Prólogo&#45;&gt;El experimento -->
<g id="edge1" class="edge">
<title>Prólogo&#45;&gt;El experimento</title>
<path fill="none" stroke="black" d="M321.67,-75.38C318.52,-74.15 315.33,-73 312.24,-72 239.97,-48.72 219.42,-52.18 145.24,-36 140.37,-34.94 135.33,-33.83 130.26,-32.72"/>
<polygon fill="black" stroke="black" points="131.17,-29.34 120.66,-30.61 129.67,-36.17 131.17,-29.34"/>
</g>
<!-- Militar -->
<g id="node4" class="node">
<title>Militar</title>
<ellipse fill="none" stroke="black" cx="191.24" cy="-18" rx="37.02" ry="18"/>
<text text-anchor="middle" x="191.24" y="-12.95" font-family="Times,serif" font-size="14.00">Militar</text>
</g>
<!-- Prólogo&#45;&gt;Militar -->
<g id="edge2" class="edge">
<title>Prólogo&#45;&gt;Militar</title>
<path fill="none" stroke="black" d="M321.52,-76C295.24,-64.5 256.77,-47.67 228.45,-35.28"/>
<polygon fill="black" stroke="black" points="230.09,-32.18 219.53,-31.37 227.29,-38.59 230.09,-32.18"/>
</g>
<!-- Científico -->
<g id="node5" class="node">
<title>Científico</title>
<ellipse fill="none" stroke="black" cx="294.24" cy="-18" rx="47.77" ry="18"/>
<text text-anchor="middle" x="294.24" y="-12.95" font-family="Times,serif" font-size="14.00">Científico</text>
</g>
<!-- Prólogo&#45;&gt;Científico -->
<g id="edge3" class="edge">
<title>Prólogo&#45;&gt;Científico</title>
<path fill="none" stroke="black" d="M337.15,-71.7C330.43,-63.44 322.25,-53.39 314.84,-44.3"/>
<polygon fill="black" stroke="black" points="317.76,-42.34 308.73,-36.8 312.33,-46.76 317.76,-42.34"/>
</g>
<!-- Periodista -->
<g id="node6" class="node">
<title>Periodista</title>
<ellipse fill="none" stroke="black" cx="408.24" cy="-18" rx="47.77" ry="18"/>
<text text-anchor="middle" x="408.24" y="-12.95" font-family="Times,serif" font-size="14.00">Periodista</text>
</g>
<!-- Prólogo&#45;&gt;Periodista -->
<g id="edge4" class="edge">
<title>Prólogo&#45;&gt;Periodista</title>
<path fill="none" stroke="black" d="M365.33,-71.7C372.06,-63.44 380.23,-53.39 387.64,-44.3"/>
<polygon fill="black" stroke="black" points="390.15,-46.76 393.75,-36.8 384.72,-42.34 390.15,-46.76"/>
</g>
<!-- La explosión -->
<g id="node7" class="node">
<title>La explosión</title>
<ellipse fill="none" stroke="black" cx="533.24" cy="-18" rx="59.03" ry="18"/>
<text text-anchor="middle" x="533.24" y="-12.95" font-family="Times,serif" font-size="14.00">La explosión</text>
</g>
<!-- Prólogo&#45;&gt;La explosión -->
<g id="edge5" class="edge">
<title>Prólogo&#45;&gt;La explosión</title>
<path fill="none" stroke="black" d="M380.89,-77.6C409.7,-66.52 453.87,-49.53 487.25,-36.69"/>
<polygon fill="black" stroke="black" points="488.18,-40.08 496.26,-33.22 485.67,-33.55 488.18,-40.08"/>
</g>
<!-- El saboteador -->
<g id="node8" class="node">
<title>El saboteador</title>
<ellipse fill="none" stroke="black" cx="672.24" cy="-18" rx="61.59" ry="18"/>
<text text-anchor="middle" x="672.24" y="-12.95" font-family="Times,serif" font-size="14.00">El saboteador</text>
</g>
<!-- Prólogo&#45;&gt;El saboteador -->
<g id="edge6" class="edge">
<title>Prólogo&#45;&gt;El saboteador</title>
<path fill="none" stroke="black" d="M380.93,-82.97C427.81,-73.38 521.82,-53.92 601.24,-36 605.76,-34.98 610.44,-33.9 615.14,-32.81"/>
<polygon fill="black" stroke="black" points="615.66,-36.28 624.6,-30.59 614.06,-29.47 615.66,-36.28"/>
</g>
<!-- Parte I &#45; El laboratorio -->
<g id="node9" class="node">
<title>Parte I &#45; El laboratorio</title>
<polygon fill="none" stroke="blue" points="1881.74,-108 1746.74,-108 1742.74,-104 1742.74,-72 1877.74,-72 1881.74,-76 1881.74,-108"/>
<polyline fill="none" stroke="blue" points="1877.74,-104 1742.74,-104"/>
<polyline fill="none" stroke="blue" points="1877.74,-104 1877.74,-72"/>
<polyline fill="none" stroke="blue" points="1877.74,-104 1881.74,-108"/>
<text text-anchor="middle" x="1812.24" y="-84.95" font-family="Times,serif" font-size="14.00">Parte I &#45; El laboratorio</text>
</g>
<!-- Ascensor -->
<g id="node10" class="node">
<title>Ascensor</title>
<ellipse fill="none" stroke="black" cx="797.24" cy="-18" rx="45.21" ry="18"/>
<text text-anchor="middle" x="797.24" y="-12.95" font-family="Times,serif" font-size="14.00">Ascensor</text>
</g>
<!-- Parte I &#45; El laboratorio&#45;&gt;Ascensor -->
<g id="edge7" class="edge">
<title>Parte I &#45; El laboratorio&#45;&gt;Ascensor</title>
<path fill="none" stroke="black" d="M1742.28,-87.41C1551.03,-82.7 1022.42,-67.16 851.24,-36 847.87,-35.39 844.41,-34.62 840.96,-33.77"/>
<polygon fill="black" stroke="black" points="842.07,-30.44 831.5,-31.16 840.21,-37.19 842.07,-30.44"/>
</g>
<!-- Cafetería / Comedor -->
<g id="node11" class="node">
<title>Cafetería / Comedor</title>
<ellipse fill="none" stroke="black" cx="947.24" cy="-18" rx="87.18" ry="18"/>
<text text-anchor="middle" x="947.24" y="-12.95" font-family="Times,serif" font-size="14.00">Cafetería / Comedor</text>
</g>
<!-- Parte I &#45; El laboratorio&#45;&gt;Cafetería / Comedor -->
<g id="edge8" class="edge">
<title>Parte I &#45; El laboratorio&#45;&gt;Cafetería / Comedor</title>
<path fill="none" stroke="black" d="M1742.29,-86.67C1606.9,-81.62 1299.77,-67.46 1043.24,-36 1035.85,-35.09 1028.16,-34 1020.5,-32.8"/>
<polygon fill="black" stroke="black" points="1021.25,-29.38 1010.82,-31.23 1020.13,-36.29 1021.25,-29.38"/>
</g>
<!-- Oficina del director -->
<g id="node12" class="node">
<title>Oficina del director</title>
<ellipse fill="none" stroke="black" cx="1136.24" cy="-18" rx="83.6" ry="18"/>
<text text-anchor="middle" x="1136.24" y="-12.95" font-family="Times,serif" font-size="14.00">Oficina del director</text>
</g>
<!-- Parte I &#45; El laboratorio&#45;&gt;Oficina del director -->
<g id="edge9" class="edge">
<title>Parte I &#45; El laboratorio&#45;&gt;Oficina del director</title>
<path fill="none" stroke="black" d="M1742.46,-84.7C1632.85,-77.48 1413.77,-61.2 1229.24,-36 1222.3,-35.05 1215.1,-33.95 1207.9,-32.77"/>
<polygon fill="black" stroke="black" points="1208.58,-29.33 1198.14,-31.11 1207.41,-36.23 1208.58,-29.33"/>
</g>
<!-- Vestuarios -->
<g id="node13" class="node">
<title>Vestuarios</title>
<ellipse fill="none" stroke="black" cx="1287.24" cy="-18" rx="49.3" ry="18"/>
<text text-anchor="middle" x="1287.24" y="-12.95" font-family="Times,serif" font-size="14.00">Vestuarios</text>
</g>
<!-- Parte I &#45; El laboratorio&#45;&gt;Vestuarios -->
<g id="edge10" class="edge">
<title>Parte I &#45; El laboratorio&#45;&gt;Vestuarios</title>
<path fill="none" stroke="black" d="M1742.6,-84.73C1651.01,-78.28 1485.38,-63.76 1346.24,-36 1342.41,-35.24 1338.47,-34.34 1334.53,-33.37"/>
<polygon fill="black" stroke="black" points="1335.54,-30.02 1324.98,-30.87 1333.76,-36.79 1335.54,-30.02"/>
</g>
<!-- Oficina de seguridad -->
<g id="node14" class="node">
<title>Oficina de seguridad</title>
<ellipse fill="none" stroke="black" cx="1443.24" cy="-18" rx="88.2" ry="18"/>
<text text-anchor="middle" x="1443.24" y="-12.95" font-family="Times,serif" font-size="14.00">Oficina de seguridad</text>
</g>
<!-- Parte I &#45; El laboratorio&#45;&gt;Oficina de seguridad -->
<g id="edge11" class="edge">
<title>Parte I &#45; El laboratorio&#45;&gt;Oficina de seguridad</title>
<path fill="none" stroke="black" d="M1742.4,-75.75C1678.11,-63.56 1583.05,-45.52 1517.42,-33.07"/>
<polygon fill="black" stroke="black" points="1518.3,-29.68 1507.82,-31.25 1516.99,-36.55 1518.3,-29.68"/>
</g>
<!-- Pasillo central &#45; Nivel 1 -->
<g id="node15" class="node">
<title>Pasillo central &#45; Nivel 1</title>
<ellipse fill="none" stroke="black" cx="1649.24" cy="-18" rx="99.46" ry="18"/>
<text text-anchor="middle" x="1649.24" y="-12.95" font-family="Times,serif" font-size="14.00">Pasillo central &#45; Nivel 1</text>
</g>
<!-- Parte I &#45; El laboratorio&#45;&gt;Pasillo central &#45; Nivel 1 -->
<g id="edge12" class="edge">
<title>Parte I &#45; El laboratorio&#45;&gt;Pasillo central &#45; Nivel 1</title>
<path fill="none" stroke="black" d="M1771.53,-71.52C1748.96,-61.82 1720.77,-49.72 1697.14,-39.57"/>
<polygon fill="black" stroke="black" points="1698.61,-36.39 1688.04,-35.66 1695.84,-42.82 1698.61,-36.39"/>
</g>
<!-- Escaleras -->
<g id="node16" class="node">
<title>Escaleras</title>
<ellipse fill="none" stroke="black" cx="1812.24" cy="-18" rx="45.72" ry="18"/>
<text text-anchor="middle" x="1812.24" y="-12.95" font-family="Times,serif" font-size="14.00">Escaleras</text>
</g>
<!-- Parte I &#45; El laboratorio&#45;&gt;Escaleras -->
<g id="edge13" class="edge">
<title>Parte I &#45; El laboratorio&#45;&gt;Escaleras</title>
<path fill="none" stroke="black" d="M1812.24,-71.7C1812.24,-64.41 1812.24,-55.73 1812.24,-47.54"/>
<polygon fill="black" stroke="black" points="1815.74,-47.62 1812.24,-37.62 1808.74,-47.62 1815.74,-47.62"/>
</g>
<!-- Máquina de salto -->
<g id="node17" class="node">
<title>Máquina de salto</title>
<ellipse fill="none" stroke="black" cx="1951.24" cy="-18" rx="75.41" ry="18"/>
<text text-anchor="middle" x="1951.24" y="-12.95" font-family="Times,serif" font-size="14.00">Máquina de salto</text>
</g>
<!-- Parte I &#45; El laboratorio&#45;&gt;Máquina de salto -->
<g id="edge14" class="edge">
<title>Parte I &#45; El laboratorio&#45;&gt;Máquina de salto</title>
<path fill="none" stroke="black" d="M1846.96,-71.52C1865.99,-61.93 1889.72,-49.98 1909.73,-39.9"/>
<polygon fill="black" stroke="black" points="1911.1,-43.13 1918.46,-35.51 1907.95,-36.88 1911.1,-43.13"/>
</g>
<!-- Generador -->
<g id="node18" class="node">
<title>Generador</title>
<ellipse fill="none" stroke="black" cx="2094.24" cy="-18" rx="49.82" ry="18"/>
<text text-anchor="middle" x="2094.24" y="-12.95" font-family="Times,serif" font-size="14.00">Generador</text>
</g>
<!-- Parte I &#45; El laboratorio&#45;&gt;Generador -->
<g id="edge15" class="edge">
<title>Parte I &#45; El laboratorio&#45;&gt;Generador</title>
<path fill="none" stroke="black" d="M1881.76,-73.37C1925.86,-63.23 1984.05,-49.45 2035.24,-36 2038.59,-35.12 2042.03,-34.19 2045.5,-33.24"/>
<polygon fill="black" stroke="black" points="2046.4,-36.62 2055.09,-30.56 2044.51,-29.88 2046.4,-36.62"/>
</g>
<!-- Laboratorio París -->
<g id="node19" class="node">
<title>Laboratorio París</title>
<ellipse fill="none" stroke="black" cx="2237.24" cy="-18" rx="75.41" ry="18"/>
<text text-anchor="middle" x="2237.24" y="-12.95" font-family="Times,serif" font-size="14.00">Laboratorio París</text>
</g>
<!-- Parte I &#45; El laboratorio&#45;&gt;Laboratorio París -->
<g id="edge16" class="edge">
<title>Parte I &#45; El laboratorio&#45;&gt;Laboratorio París</title>
<path fill="none" stroke="black" d="M1881.95,-79.11C1950.98,-69.1 2059.62,-52.74 2153.24,-36 2158.86,-34.99 2164.69,-33.91 2170.53,-32.79"/>
<polygon fill="black" stroke="black" points="2171.1,-36.24 2180.25,-30.89 2169.76,-29.37 2171.1,-36.24"/>
</g>
<!-- Laboratorio Berlín -->
<g id="node20" class="node">
<title>Laboratorio Berlín</title>
<ellipse fill="none" stroke="black" cx="2410.24" cy="-18" rx="80.01" ry="18"/>
<text text-anchor="middle" x="2410.24" y="-12.95" font-family="Times,serif" font-size="14.00">Laboratorio Berlín</text>
</g>
<!-- Parte I &#45; El laboratorio&#45;&gt;Laboratorio Berlín -->
<g id="edge17" class="edge">
<title>Parte I &#45; El laboratorio&#45;&gt;Laboratorio Berlín</title>
<path fill="none" stroke="black" d="M1882.04,-83.62C1980.34,-75.62 2165,-59.01 2321.24,-36 2327.72,-35.05 2334.45,-33.95 2341.17,-32.79"/>
<polygon fill="black" stroke="black" points="2341.71,-36.25 2350.94,-31.05 2340.48,-29.36 2341.71,-36.25"/>
</g>
<!-- Laboratorio Roma -->
<g id="node21" class="node">
<title>Laboratorio Roma</title>
<ellipse fill="none" stroke="black" cx="2588.24" cy="-18" rx="79.5" ry="18"/>
<text text-anchor="middle" x="2588.24" y="-12.95" font-family="Times,serif" font-size="14.00">Laboratorio Roma</text>
</g>
<!-- Parte I &#45; El laboratorio&#45;&gt;Laboratorio Roma -->
<g id="edge18" class="edge">
<title>Parte I &#45; El laboratorio&#45;&gt;Laboratorio Roma</title>
<path fill="none" stroke="black" d="M1882.24,-86.19C2006.78,-80.6 2274.85,-65.99 2499.24,-36 2506.1,-35.08 2513.22,-33.98 2520.32,-32.78"/>
<polygon fill="black" stroke="black" points="2520.69,-36.27 2529.93,-31.09 2519.48,-29.38 2520.69,-36.27"/>
</g>
<!-- Pasillo central &#45; Nivel 2 -->
<g id="node22" class="node">
<title>Pasillo central &#45; Nivel 2</title>
<ellipse fill="none" stroke="black" cx="2785.24" cy="-18" rx="99.46" ry="18"/>
<text text-anchor="middle" x="2785.24" y="-12.95" font-family="Times,serif" font-size="14.00">Pasillo central &#45; Nivel 2</text>
</g>
<!-- Parte I &#45; El laboratorio&#45;&gt;Pasillo central &#45; Nivel 2 -->
<g id="edge19" class="edge">
<title>Parte I &#45; El laboratorio&#45;&gt;Pasillo central &#45; Nivel 2</title>
<path fill="none" stroke="black" d="M1882.23,-86.97C2029.64,-82.18 2382.78,-68.12 2677.24,-36 2685.8,-35.07 2694.71,-33.93 2703.59,-32.69"/>
<polygon fill="black" stroke="black" points="2703.89,-36.19 2713.29,-31.29 2702.89,-29.26 2703.89,-36.19"/>
</g>
</g>
</svg>
