<?xml version="1.0" encoding="UTF-8" standalone="no"?>
<!DOCTYPE svg PUBLIC "-//W3C//DTD SVG 1.1//EN"
 "http://www.w3.org/Graphics/SVG/1.1/DTD/svg11.dtd">
<!-- Generated by graphviz version 12.2.1 (20241206.2353)
 -->
<!-- Title: G Pages: 1 -->
<svg width="1575pt" height="260pt"
 viewBox="0.00 0.00 1574.74 260.00" xmlns="http://www.w3.org/2000/svg" xmlns:xlink="http://www.w3.org/1999/xlink">
<g id="graph0" class="graph" transform="scale(1 1) rotate(0) translate(4 256)">
<title>G</title>
<polygon fill="white" stroke="none" points="-4,4 -4,-256 1570.74,-256 1570.74,4 -4,4"/>
<!-- El experimento -->
<g id="node1" class="node">
<title>El experimento</title>
<ellipse fill="none" stroke="black" cx="68.24" cy="-234" rx="68.24" ry="18"/>
<text text-anchor="middle" x="68.24" y="-228.95" font-family="Times,serif" font-size="14.00">El experimento</text>
</g>
<!-- Militar -->
<g id="node2" class="node">
<title>Militar</title>
<ellipse fill="none" stroke="black" cx="191.24" cy="-234" rx="37.02" ry="18"/>
<text text-anchor="middle" x="191.24" y="-228.95" font-family="Times,serif" font-size="14.00">Militar</text>
</g>
<!-- Científico -->
<g id="node3" class="node">
<title>Científico</title>
<ellipse fill="none" stroke="black" cx="294.24" cy="-234" rx="47.77" ry="18"/>
<text text-anchor="middle" x="294.24" y="-228.95" font-family="Times,serif" font-size="14.00">Científico</text>
</g>
<!-- Periodista -->
<g id="node4" class="node">
<title>Periodista</title>
<ellipse fill="none" stroke="black" cx="408.24" cy="-234" rx="47.77" ry="18"/>
<text text-anchor="middle" x="408.24" y="-228.95" font-family="Times,serif" font-size="14.00">Periodista</text>
</g>
<!-- La explosión -->
<g id="node5" class="node">
<title>La explosión</title>
<ellipse fill="none" stroke="black" cx="533.24" cy="-234" rx="59.03" ry="18"/>
<text text-anchor="middle" x="533.24" y="-228.95" font-family="Times,serif" font-size="14.00">La explosión</text>
</g>
<!-- El saboteador -->
<g id="node6" class="node">
<title>El saboteador</title>
<ellipse fill="none" stroke="black" cx="672.24" cy="-234" rx="61.59" ry="18"/>
<text text-anchor="middle" x="672.24" y="-228.95" font-family="Times,serif" font-size="14.00">El saboteador</text>
</g>
<!-- Ascensor -->
<g id="node7" class="node">
<title>Ascensor</title>
<ellipse fill="none" stroke="black" cx="797.24" cy="-234" rx="45.21" ry="18"/>
<text text-anchor="middle" x="797.24" y="-228.95" font-family="Times,serif" font-size="14.00">Ascensor</text>
</g>
<!-- Pasillo central &#45; Nivel 1 -->
<g id="node8" class="node">
<title>Pasillo central &#45; Nivel 1</title>
<ellipse fill="none" stroke="black" cx="1136.24" cy="-162" rx="99.46" ry="18"/>
<text text-anchor="middle" x="1136.24" y="-156.95" font-family="Times,serif" font-size="14.00">Pasillo central &#45; Nivel 1</text>
</g>
<!-- Ascensor&#45;&gt;Pasillo central &#45; Nivel 1 -->
<g id="edge1" class="edge">
<title>Ascensor&#45;&gt;Pasillo central &#45; Nivel 1</title>
<path fill="none" stroke="black" d="M831.05,-221.67C837.7,-219.63 844.66,-217.64 851.24,-216 917.62,-199.44 993.87,-185.53 1050.78,-176.11"/>
<polygon fill="black" stroke="black" points="1051.1,-179.61 1060.4,-174.54 1049.97,-172.7 1051.1,-179.61"/>
</g>
<!-- Pasillo central &#45; Nivel 2 -->
<g id="node13" class="node">
<title>Pasillo central &#45; Nivel 2</title>
<ellipse fill="none" stroke="black" cx="1136.24" cy="-90" rx="99.46" ry="18"/>
<text text-anchor="middle" x="1136.24" y="-84.95" font-family="Times,serif" font-size="14.00">Pasillo central &#45; Nivel 2</text>
</g>
<!-- Pasillo central &#45; Nivel 1&#45;&gt;Pasillo central &#45; Nivel 2 -->
<g id="edge6" class="edge">
<title>Pasillo central &#45; Nivel 1&#45;&gt;Pasillo central &#45; Nivel 2</title>
<path fill="none" stroke="black" d="M1130.33,-143.7C1129.57,-136.41 1129.33,-127.73 1129.59,-119.54"/>
<polygon fill="black" stroke="black" points="1133.08,-119.82 1130.25,-109.61 1126.1,-119.36 1133.08,-119.82"/>
</g>
<!-- Cafetería / Comedor -->
<g id="node9" class="node">
<title>Cafetería / Comedor</title>
<ellipse fill="none" stroke="black" cx="947.24" cy="-234" rx="87.18" ry="18"/>
<text text-anchor="middle" x="947.24" y="-228.95" font-family="Times,serif" font-size="14.00">Cafetería / Comedor</text>
</g>
<!-- Cafetería / Comedor&#45;&gt;Pasillo central &#45; Nivel 1 -->
<g id="edge2" class="edge">
<title>Cafetería / Comedor&#45;&gt;Pasillo central &#45; Nivel 1</title>
<path fill="none" stroke="black" d="M988.25,-217.81C1016.1,-207.5 1053.19,-193.76 1083.27,-182.62"/>
<polygon fill="black" stroke="black" points="1084.42,-185.93 1092.58,-179.17 1081.99,-179.36 1084.42,-185.93"/>
</g>
<!-- Oficina del director -->
<g id="node10" class="node">
<title>Oficina del director</title>
<ellipse fill="none" stroke="black" cx="1136.24" cy="-234" rx="83.6" ry="18"/>
<text text-anchor="middle" x="1136.24" y="-228.95" font-family="Times,serif" font-size="14.00">Oficina del director</text>
</g>
<!-- Oficina del director&#45;&gt;Pasillo central &#45; Nivel 1 -->
<g id="edge3" class="edge">
<title>Oficina del director&#45;&gt;Pasillo central &#45; Nivel 1</title>
<path fill="none" stroke="black" d="M1136.24,-215.7C1136.24,-208.41 1136.24,-199.73 1136.24,-191.54"/>
<polygon fill="black" stroke="black" points="1139.74,-191.62 1136.24,-181.62 1132.74,-191.62 1139.74,-191.62"/>
</g>
<!-- Vestuarios -->
<g id="node11" class="node">
<title>Vestuarios</title>
<ellipse fill="none" stroke="black" cx="1287.24" cy="-234" rx="49.3" ry="18"/>
<text text-anchor="middle" x="1287.24" y="-228.95" font-family="Times,serif" font-size="14.00">Vestuarios</text>
</g>
<!-- Vestuarios&#45;&gt;Pasillo central &#45; Nivel 1 -->
<g id="edge4" class="edge">
<title>Vestuarios&#45;&gt;Pasillo central &#45; Nivel 1</title>
<path fill="none" stroke="black" d="M1257.77,-219.34C1236.06,-209.28 1206.16,-195.41 1181.44,-183.95"/>
<polygon fill="black" stroke="black" points="1183.12,-180.88 1172.58,-179.84 1180.18,-187.23 1183.12,-180.88"/>
</g>
<!-- Oficina de seguridad -->
<g id="node12" class="node">
<title>Oficina de seguridad</title>
<ellipse fill="none" stroke="black" cx="1443.24" cy="-234" rx="88.2" ry="18"/>
<text text-anchor="middle" x="1443.24" y="-228.95" font-family="Times,serif" font-size="14.00">Oficina de seguridad</text>
</g>
<!-- Oficina de seguridad&#45;&gt;Pasillo central &#45; Nivel 1 -->
<g id="edge5" class="edge">
<title>Oficina de seguridad&#45;&gt;Pasillo central &#45; Nivel 1</title>
<path fill="none" stroke="black" d="M1385.86,-219.92C1335.36,-208.4 1261.65,-191.59 1207.41,-179.23"/>
<polygon fill="black" stroke="black" points="1208.5,-175.89 1197.97,-177.07 1206.94,-182.71 1208.5,-175.89"/>
</g>
<!-- Pasillo central &#45; Nivel 2&#45;&gt;Pasillo central &#45; Nivel 1 -->
<g id="edge18" class="edge">
<title>Pasillo central &#45; Nivel 2&#45;&gt;Pasillo central &#45; Nivel 1</title>
<path fill="none" stroke="black" d="M1142.14,-108.1C1142.9,-115.37 1143.15,-124.04 1142.89,-132.24"/>
<polygon fill="black" stroke="black" points="1139.4,-131.98 1142.25,-142.19 1146.39,-132.43 1139.4,-131.98"/>
</g>
<!-- Máquina de salto -->
<g id="node15" class="node">
<title>Máquina de salto</title>
<ellipse fill="none" stroke="black" cx="850.24" cy="-18" rx="75.41" ry="18"/>
<text text-anchor="middle" x="850.24" y="-12.95" font-family="Times,serif" font-size="14.00">Máquina de salto</text>
</g>
<!-- Pasillo central &#45; Nivel 2&#45;&gt;Máquina de salto -->
<g id="edge17" class="edge">
<title>Pasillo central &#45; Nivel 2&#45;&gt;Máquina de salto</title>
<path fill="none" stroke="black" d="M1075.29,-75.42C1026.37,-63.84 958.17,-47.17 909.66,-34.96"/>
<polygon fill="black" stroke="black" points="910.72,-31.61 900.17,-32.56 909.01,-38.4 910.72,-31.61"/>
</g>
<!-- Generador -->
<g id="node16" class="node">
<title>Generador</title>
<ellipse fill="none" stroke="black" cx="993.24" cy="-18" rx="49.82" ry="18"/>
<text text-anchor="middle" x="993.24" y="-12.95" font-family="Times,serif" font-size="14.00">Generador</text>
</g>
<!-- Pasillo central &#45; Nivel 2&#45;&gt;Generador -->
<g id="edge16" class="edge">
<title>Pasillo central &#45; Nivel 2&#45;&gt;Generador</title>
<path fill="none" stroke="black" d="M1097.65,-72.94C1076.06,-62.93 1049.42,-49.95 1028.4,-39.24"/>
<polygon fill="black" stroke="black" points="1030.12,-36.19 1019.63,-34.72 1026.91,-42.41 1030.12,-36.19"/>
</g>
<!-- Laboratorio París -->
<g id="node17" class="node">
<title>Laboratorio París</title>
<ellipse fill="none" stroke="black" cx="1136.24" cy="-18" rx="75.41" ry="18"/>
<text text-anchor="middle" x="1136.24" y="-12.95" font-family="Times,serif" font-size="14.00">Laboratorio París</text>
</g>
<!-- Pasillo central &#45; Nivel 2&#45;&gt;Laboratorio París -->
<g id="edge15" class="edge">
<title>Pasillo central &#45; Nivel 2&#45;&gt;Laboratorio París</title>
<path fill="none" stroke="black" d="M1130.33,-71.7C1129.57,-64.41 1129.33,-55.73 1129.59,-47.54"/>
<polygon fill="black" stroke="black" points="1133.08,-47.82 1130.25,-37.61 1126.1,-47.36 1133.08,-47.82"/>
</g>
<!-- Laboratorio Berlín -->
<g id="node18" class="node">
<title>Laboratorio Berlín</title>
<ellipse fill="none" stroke="black" cx="1309.24" cy="-18" rx="80.01" ry="18"/>
<text text-anchor="middle" x="1309.24" y="-12.95" font-family="Times,serif" font-size="14.00">Laboratorio Berlín</text>
</g>
<!-- Pasillo central &#45; Nivel 2&#45;&gt;Laboratorio Berlín -->
<g id="edge14" class="edge">
<title>Pasillo central &#45; Nivel 2&#45;&gt;Laboratorio Berlín</title>
<path fill="none" stroke="black" d="M1170.56,-72.76C1195.24,-62.31 1228.84,-48.68 1256.83,-37.76"/>
<polygon fill="black" stroke="black" points="1257.78,-41.14 1265.84,-34.26 1255.25,-34.62 1257.78,-41.14"/>
</g>
<!-- Laboratorio Roma -->
<g id="node19" class="node">
<title>Laboratorio Roma</title>
<ellipse fill="none" stroke="black" cx="1487.24" cy="-18" rx="79.5" ry="18"/>
<text text-anchor="middle" x="1487.24" y="-12.95" font-family="Times,serif" font-size="14.00">Laboratorio Roma</text>
</g>
<!-- Pasillo central &#45; Nivel 2&#45;&gt;Laboratorio Roma -->
<g id="edge13" class="edge">
<title>Pasillo central &#45; Nivel 2&#45;&gt;Laboratorio Roma</title>
<path fill="none" stroke="black" d="M1198.06,-75.59C1258.84,-63.12 1351.46,-44.65 1415.46,-32.23"/>
<polygon fill="black" stroke="black" points="1416.03,-35.69 1425.18,-30.35 1414.7,-28.82 1416.03,-35.69"/>
</g>
<!-- Escaleras -->
<g id="node14" class="node">
<title>Escaleras</title>
<ellipse fill="none" stroke="black" cx="1299.24" cy="-162" rx="45.72" ry="18"/>
<text text-anchor="middle" x="1299.24" y="-156.95" font-family="Times,serif" font-size="14.00">Escaleras</text>
</g>
<!-- Escaleras&#45;&gt;Pasillo central &#45; Nivel 2 -->
<g id="edge7" class="edge">
<title>Escaleras&#45;&gt;Pasillo central &#45; Nivel 2</title>
<path fill="none" stroke="black" d="M1269.34,-148.16C1245.47,-137.91 1211.55,-123.34 1183.93,-111.48"/>
<polygon fill="black" stroke="black" points="1185.64,-108.41 1175.08,-107.68 1182.88,-114.84 1185.64,-108.41"/>
</g>
<!-- Máquina de salto&#45;&gt;Pasillo central &#45; Nivel 2 -->
<g id="edge8" class="edge">
<title>Máquina de salto&#45;&gt;Pasillo central &#45; Nivel 2</title>
<path fill="none" stroke="black" d="M904.2,-30.93C951.73,-42.13 1020.95,-59.01 1071.45,-71.7"/>
<polygon fill="black" stroke="black" points="1070.55,-75.08 1081.11,-74.13 1072.26,-68.29 1070.55,-75.08"/>
</g>
<!-- Generador&#45;&gt;Pasillo central &#45; Nivel 2 -->
<g id="edge9" class="edge">
<title>Generador&#45;&gt;Pasillo central &#45; Nivel 2</title>
<path fill="none" stroke="black" d="M1025.13,-31.97C1046.77,-41.86 1075.35,-55.71 1098.16,-67.28"/>
<polygon fill="black" stroke="black" points="1096.35,-70.28 1106.84,-71.72 1099.54,-64.05 1096.35,-70.28"/>
</g>
<!-- Laboratorio París&#45;&gt;Pasillo central &#45; Nivel 2 -->
<g id="edge10" class="edge">
<title>Laboratorio París&#45;&gt;Pasillo central &#45; Nivel 2</title>
<path fill="none" stroke="black" d="M1142.14,-36.1C1142.9,-43.37 1143.15,-52.04 1142.89,-60.24"/>
<polygon fill="black" stroke="black" points="1139.4,-59.98 1142.25,-70.19 1146.39,-60.43 1139.4,-59.98"/>
</g>
<!-- Laboratorio Berlín&#45;&gt;Pasillo central &#45; Nivel 2 -->
<g id="edge11" class="edge">
<title>Laboratorio Berlín&#45;&gt;Pasillo central &#45; Nivel 2</title>
<path fill="none" stroke="black" d="M1276.1,-34.73C1251.95,-44.99 1218.81,-58.45 1190.81,-69.4"/>
<polygon fill="black" stroke="black" points="1189.82,-66.03 1181.77,-72.92 1192.35,-72.56 1189.82,-66.03"/>
</g>
<!-- Laboratorio Roma&#45;&gt;Pasillo central &#45; Nivel 2 -->
<g id="edge12" class="edge">
<title>Laboratorio Roma&#45;&gt;Pasillo central &#45; Nivel 2</title>
<path fill="none" stroke="black" d="M1431.47,-31.17C1373.16,-43.17 1281.27,-61.52 1215.46,-74.32"/>
<polygon fill="black" stroke="black" points="1214.94,-70.86 1205.79,-76.2 1216.28,-77.73 1214.94,-70.86"/>
</g>
</g>
</svg>
