<?xml version="1.0" encoding="UTF-8" standalone="no"?>
<!DOCTYPE svg PUBLIC "-//W3C//DTD SVG 1.1//EN"
 "http://www.w3.org/Graphics/SVG/1.1/DTD/svg11.dtd">
<!-- Generated by graphviz version 12.2.1 (20241206.2353)
 -->
<!-- Title: G Pages: 1 -->
<svg width="3217pt" height="44pt"
 viewBox="0.00 0.00 3216.70 44.00" xmlns="http://www.w3.org/2000/svg" xmlns:xlink="http://www.w3.org/1999/xlink">
<g id="graph0" class="graph" transform="scale(1 1) rotate(0) translate(4 40)">
<title>G</title>
<polygon fill="white" stroke="none" points="-4,4 -4,-40 3212.7,-40 3212.7,4 -4,4"/>
<!-- El experimento -->
<g id="node1" class="node">
<title>El experimento</title>
<ellipse fill="none" stroke="black" cx="68.24" cy="-18" rx="68.24" ry="18"/>
<text text-anchor="middle" x="68.24" y="-12.95" font-family="Times,serif" font-size="14.00">El experimento</text>
</g>
<!-- Militar -->
<g id="node2" class="node">
<title>Militar</title>
<ellipse fill="none" stroke="black" cx="191.24" cy="-18" rx="37.02" ry="18"/>
<text text-anchor="middle" x="191.24" y="-12.95" font-family="Times,serif" font-size="14.00">Militar</text>
</g>
<!-- Científico -->
<g id="node3" class="node">
<title>Científico</title>
<ellipse fill="none" stroke="black" cx="294.24" cy="-18" rx="47.77" ry="18"/>
<text text-anchor="middle" x="294.24" y="-12.95" font-family="Times,serif" font-size="14.00">Científico</text>
</g>
<!-- Periodista -->
<g id="node4" class="node">
<title>Periodista</title>
<ellipse fill="none" stroke="black" cx="408.24" cy="-18" rx="47.77" ry="18"/>
<text text-anchor="middle" x="408.24" y="-12.95" font-family="Times,serif" font-size="14.00">Periodista</text>
</g>
<!-- La explosión -->
<g id="node5" class="node">
<title>La explosión</title>
<ellipse fill="none" stroke="black" cx="533.24" cy="-18" rx="59.03" ry="18"/>
<text text-anchor="middle" x="533.24" y="-12.95" font-family="Times,serif" font-size="14.00">La explosión</text>
</g>
<!-- El saboteador -->
<g id="node6" class="node">
<title>El saboteador</title>
<ellipse fill="none" stroke="black" cx="672.24" cy="-18" rx="61.59" ry="18"/>
<text text-anchor="middle" x="672.24" y="-12.95" font-family="Times,serif" font-size="14.00">El saboteador</text>
</g>
<!-- Ascensor -->
<g id="node7" class="node">
<title>Ascensor</title>
<ellipse fill="none" stroke="black" cx="797.24" cy="-18" rx="45.21" ry="18"/>
<text text-anchor="middle" x="797.24" y="-12.95" font-family="Times,serif" font-size="14.00">Ascensor</text>
</g>
<!-- Cafetería / Comedor -->
<g id="node8" class="node">
<title>Cafetería / Comedor</title>
<ellipse fill="none" stroke="black" cx="947.24" cy="-18" rx="87.18" ry="18"/>
<text text-anchor="middle" x="947.24" y="-12.95" font-family="Times,serif" font-size="14.00">Cafetería / Comedor</text>
</g>
<!-- Oficina del director -->
<g id="node9" class="node">
<title>Oficina del director</title>
<ellipse fill="none" stroke="black" cx="1136.24" cy="-18" rx="83.6" ry="18"/>
<text text-anchor="middle" x="1136.24" y="-12.95" font-family="Times,serif" font-size="14.00">Oficina del director</text>
</g>
<!-- Vestuarios -->
<g id="node10" class="node">
<title>Vestuarios</title>
<ellipse fill="none" stroke="black" cx="1287.24" cy="-18" rx="49.3" ry="18"/>
<text text-anchor="middle" x="1287.24" y="-12.95" font-family="Times,serif" font-size="14.00">Vestuarios</text>
</g>
<!-- Oficina de seguridad -->
<g id="node11" class="node">
<title>Oficina de seguridad</title>
<ellipse fill="none" stroke="black" cx="1443.24" cy="-18" rx="88.2" ry="18"/>
<text text-anchor="middle" x="1443.24" y="-12.95" font-family="Times,serif" font-size="14.00">Oficina de seguridad</text>
</g>
<!-- Pasillo central &#45; Nivel 1 -->
<g id="node12" class="node">
<title>Pasillo central &#45; Nivel 1</title>
<ellipse fill="none" stroke="black" cx="1649.24" cy="-18" rx="99.46" ry="18"/>
<text text-anchor="middle" x="1649.24" y="-12.95" font-family="Times,serif" font-size="14.00">Pasillo central &#45; Nivel 1</text>
</g>
<!-- Pasillo central &#45; Nivel 1&#45;&gt;Pasillo central &#45; Nivel 1 -->
<g id="edge1" class="edge">
<title>Pasillo central &#45; Nivel 1&#45;&gt;Pasillo central &#45; Nivel 1</title>
<path fill="none" stroke="black" d="M1748.65,-19.26C1759.62,-19.02 1766.7,-18.6 1766.7,-18 1766.7,-17.64 1764.2,-17.35 1759.88,-17.12"/>
<polygon fill="black" stroke="black" points="1760.27,-13.63 1750.16,-16.79 1760.03,-20.63 1760.27,-13.63"/>
</g>
<!-- Pasillo central &#45; Nivel 1&#45;&gt;Pasillo central &#45; Nivel 1 -->
<g id="edge2" class="edge">
<title>Pasillo central &#45; Nivel 1&#45;&gt;Pasillo central &#45; Nivel 1</title>
<path fill="none" stroke="black" d="M1747.87,-20.91C1769.22,-20.63 1784.7,-19.66 1784.7,-18 1784.7,-16.65 1774.48,-15.76 1759.2,-15.32"/>
<polygon fill="black" stroke="black" points="1759.45,-11.83 1749.38,-15.12 1759.31,-18.82 1759.45,-11.83"/>
</g>
<!-- Pasillo central &#45; Nivel 1&#45;&gt;Pasillo central &#45; Nivel 1 -->
<g id="edge3" class="edge">
<title>Pasillo central &#45; Nivel 1&#45;&gt;Pasillo central &#45; Nivel 1</title>
<path fill="none" stroke="black" d="M1745.9,-22.5C1777.52,-22.48 1802.7,-20.98 1802.7,-18 1802.7,-15.38 1783.25,-13.91 1757.07,-13.57"/>
<polygon fill="black" stroke="black" points="1757.44,-10.08 1747.42,-13.51 1757.39,-17.08 1757.44,-10.08"/>
</g>
<!-- Pasillo central &#45; Nivel 1&#45;&gt;Pasillo central &#45; Nivel 1 -->
<g id="edge4" class="edge">
<title>Pasillo central &#45; Nivel 1&#45;&gt;Pasillo central &#45; Nivel 1</title>
<path fill="none" stroke="black" d="M1743.59,-23.92C1785.04,-24.44 1820.7,-22.47 1820.7,-18 1820.7,-13.95 1791.41,-11.95 1755.07,-12"/>
<polygon fill="black" stroke="black" points="1755.07,-8.5 1745.1,-12.07 1755.12,-15.5 1755.07,-8.5"/>
</g>
<!-- Pasillo central &#45; Nivel 1&#45;&gt;Pasillo central &#45; Nivel 1 -->
<g id="edge5" class="edge">
<title>Pasillo central &#45; Nivel 1&#45;&gt;Pasillo central &#45; Nivel 1</title>
<path fill="none" stroke="black" d="M1741.36,-25.15C1792.1,-26.46 1838.7,-24.07 1838.7,-18 1838.7,-12.39 1798.93,-9.93 1752.86,-10.61"/>
<polygon fill="black" stroke="black" points="1752.8,-7.11 1742.87,-10.82 1752.94,-14.11 1752.8,-7.11"/>
</g>
<!-- Pasillo central &#45; Nivel 1&#45;&gt;Pasillo central &#45; Nivel 1 -->
<g id="edge6" class="edge">
<title>Pasillo central &#45; Nivel 1&#45;&gt;Pasillo central &#45; Nivel 1</title>
<path fill="none" stroke="black" d="M1738.8,-26.21C1798.55,-28.52 1856.7,-25.78 1856.7,-18 1856.7,-10.71 1805.59,-7.84 1749.97,-9.42"/>
<polygon fill="black" stroke="black" points="1750.19,-5.91 1740.32,-9.74 1750.43,-12.91 1750.19,-5.91"/>
</g>
<!-- Escaleras -->
<g id="node13" class="node">
<title>Escaleras</title>
<ellipse fill="none" stroke="black" cx="1920.24" cy="-18" rx="45.72" ry="18"/>
<text text-anchor="middle" x="1920.24" y="-12.95" font-family="Times,serif" font-size="14.00">Escaleras</text>
</g>
<!-- Máquina de salto -->
<g id="node14" class="node">
<title>Máquina de salto</title>
<ellipse fill="none" stroke="black" cx="2059.24" cy="-18" rx="75.41" ry="18"/>
<text text-anchor="middle" x="2059.24" y="-12.95" font-family="Times,serif" font-size="14.00">Máquina de salto</text>
</g>
<!-- Máquina de salto&#45;&gt;Máquina de salto -->
<g id="edge7" class="edge">
<title>Máquina de salto&#45;&gt;Máquina de salto</title>
<path fill="none" stroke="black" d="M2130.11,-24.4C2143.33,-23.61 2152.65,-21.48 2152.65,-18 2152.65,-15.61 2148.25,-13.85 2141.2,-12.73"/>
<polygon fill="black" stroke="black" points="2141.92,-9.29 2131.62,-11.75 2141.21,-16.25 2141.92,-9.29"/>
</g>
<!-- Generador -->
<g id="node15" class="node">
<title>Generador</title>
<ellipse fill="none" stroke="black" cx="2220.24" cy="-18" rx="49.82" ry="18"/>
<text text-anchor="middle" x="2220.24" y="-12.95" font-family="Times,serif" font-size="14.00">Generador</text>
</g>
<!-- Generador&#45;&gt;Generador -->
<g id="edge8" class="edge">
<title>Generador&#45;&gt;Generador</title>
<path fill="none" stroke="black" d="M2267.15,-24.67C2279.09,-24.23 2288.06,-22.01 2288.06,-18 2288.06,-15.43 2284.38,-13.6 2278.59,-12.49"/>
<polygon fill="black" stroke="black" points="2278.96,-9.01 2268.66,-11.48 2278.25,-15.98 2278.96,-9.01"/>
</g>
<!-- Laboratorio París -->
<g id="node16" class="node">
<title>Laboratorio París</title>
<ellipse fill="none" stroke="black" cx="2381.24" cy="-18" rx="75.41" ry="18"/>
<text text-anchor="middle" x="2381.24" y="-12.95" font-family="Times,serif" font-size="14.00">Laboratorio París</text>
</g>
<!-- Laboratorio París&#45;&gt;Laboratorio París -->
<g id="edge9" class="edge">
<title>Laboratorio París&#45;&gt;Laboratorio París</title>
<path fill="none" stroke="black" d="M2452.11,-24.4C2465.33,-23.61 2474.65,-21.48 2474.65,-18 2474.65,-15.61 2470.25,-13.85 2463.2,-12.73"/>
<polygon fill="black" stroke="black" points="2463.92,-9.29 2453.62,-11.75 2463.21,-16.25 2463.92,-9.29"/>
</g>
<!-- Laboratorio Berlín -->
<g id="node17" class="node">
<title>Laboratorio Berlín</title>
<ellipse fill="none" stroke="black" cx="2572.24" cy="-18" rx="80.01" ry="18"/>
<text text-anchor="middle" x="2572.24" y="-12.95" font-family="Times,serif" font-size="14.00">Laboratorio Berlín</text>
</g>
<!-- Laboratorio Berlín&#45;&gt;Laboratorio Berlín -->
<g id="edge10" class="edge">
<title>Laboratorio Berlín&#45;&gt;Laboratorio Berlín</title>
<path fill="none" stroke="black" d="M2647.86,-24.33C2661.07,-23.48 2670.25,-21.38 2670.25,-18 2670.25,-15.68 2665.91,-13.96 2658.9,-12.83"/>
<polygon fill="black" stroke="black" points="2659.67,-9.4 2649.36,-11.83 2658.94,-16.36 2659.67,-9.4"/>
</g>
<!-- Laboratorio Roma -->
<g id="node18" class="node">
<title>Laboratorio Roma</title>
<ellipse fill="none" stroke="black" cx="2768.24" cy="-18" rx="79.5" ry="18"/>
<text text-anchor="middle" x="2768.24" y="-12.95" font-family="Times,serif" font-size="14.00">Laboratorio Roma</text>
</g>
<!-- Laboratorio Roma&#45;&gt;Laboratorio Roma -->
<g id="edge11" class="edge">
<title>Laboratorio Roma&#45;&gt;Laboratorio Roma</title>
<path fill="none" stroke="black" d="M2843.05,-24.35C2856.41,-23.53 2865.74,-21.41 2865.74,-18 2865.74,-15.66 2861.33,-13.92 2854.23,-12.8"/>
<polygon fill="black" stroke="black" points="2854.86,-9.35 2844.56,-11.8 2854.14,-16.31 2854.86,-9.35"/>
</g>
<!-- Pasillo central &#45; Nivel 2 -->
<g id="node19" class="node">
<title>Pasillo central &#45; Nivel 2</title>
<ellipse fill="none" stroke="black" cx="2983.24" cy="-18" rx="99.46" ry="18"/>
<text text-anchor="middle" x="2983.24" y="-12.95" font-family="Times,serif" font-size="14.00">Pasillo central &#45; Nivel 2</text>
</g>
<!-- Pasillo central &#45; Nivel 2&#45;&gt;Pasillo central &#45; Nivel 2 -->
<g id="edge12" class="edge">
<title>Pasillo central &#45; Nivel 2&#45;&gt;Pasillo central &#45; Nivel 2</title>
<path fill="none" stroke="black" d="M3082.65,-19.26C3093.62,-19.02 3100.7,-18.6 3100.7,-18 3100.7,-17.64 3098.2,-17.35 3093.88,-17.12"/>
<polygon fill="black" stroke="black" points="3094.27,-13.63 3084.16,-16.79 3094.03,-20.63 3094.27,-13.63"/>
</g>
<!-- Pasillo central &#45; Nivel 2&#45;&gt;Pasillo central &#45; Nivel 2 -->
<g id="edge13" class="edge">
<title>Pasillo central &#45; Nivel 2&#45;&gt;Pasillo central &#45; Nivel 2</title>
<path fill="none" stroke="black" d="M3081.87,-20.91C3103.22,-20.63 3118.7,-19.66 3118.7,-18 3118.7,-16.65 3108.48,-15.76 3093.2,-15.32"/>
<polygon fill="black" stroke="black" points="3093.45,-11.83 3083.38,-15.12 3093.31,-18.82 3093.45,-11.83"/>
</g>
<!-- Pasillo central &#45; Nivel 2&#45;&gt;Pasillo central &#45; Nivel 2 -->
<g id="edge14" class="edge">
<title>Pasillo central &#45; Nivel 2&#45;&gt;Pasillo central &#45; Nivel 2</title>
<path fill="none" stroke="black" d="M3079.9,-22.5C3111.52,-22.48 3136.7,-20.98 3136.7,-18 3136.7,-15.38 3117.25,-13.91 3091.07,-13.57"/>
<polygon fill="black" stroke="black" points="3091.44,-10.08 3081.42,-13.51 3091.39,-17.08 3091.44,-10.08"/>
</g>
<!-- Pasillo central &#45; Nivel 2&#45;&gt;Pasillo central &#45; Nivel 2 -->
<g id="edge15" class="edge">
<title>Pasillo central &#45; Nivel 2&#45;&gt;Pasillo central &#45; Nivel 2</title>
<path fill="none" stroke="black" d="M3077.59,-23.92C3119.04,-24.44 3154.7,-22.47 3154.7,-18 3154.7,-13.95 3125.41,-11.95 3089.07,-12"/>
<polygon fill="black" stroke="black" points="3089.07,-8.5 3079.1,-12.07 3089.12,-15.5 3089.07,-8.5"/>
</g>
<!-- Pasillo central &#45; Nivel 2&#45;&gt;Pasillo central &#45; Nivel 2 -->
<g id="edge16" class="edge">
<title>Pasillo central &#45; Nivel 2&#45;&gt;Pasillo central &#45; Nivel 2</title>
<path fill="none" stroke="black" d="M3075.36,-25.15C3126.1,-26.46 3172.7,-24.07 3172.7,-18 3172.7,-12.39 3132.93,-9.93 3086.86,-10.61"/>
<polygon fill="black" stroke="black" points="3086.8,-7.11 3076.87,-10.82 3086.94,-14.11 3086.8,-7.11"/>
</g>
<!-- Pasillo central &#45; Nivel 2&#45;&gt;Pasillo central &#45; Nivel 2 -->
<g id="edge17" class="edge">
<title>Pasillo central &#45; Nivel 2&#45;&gt;Pasillo central &#45; Nivel 2</title>
<path fill="none" stroke="black" d="M3072.8,-26.21C3132.55,-28.52 3190.7,-25.78 3190.7,-18 3190.7,-10.71 3139.59,-7.84 3083.97,-9.42"/>
<polygon fill="black" stroke="black" points="3084.19,-5.91 3074.32,-9.74 3084.43,-12.91 3084.19,-5.91"/>
</g>
<!-- Pasillo central &#45; Nivel 2&#45;&gt;Pasillo central &#45; Nivel 2 -->
<g id="edge18" class="edge">
<title>Pasillo central &#45; Nivel 2&#45;&gt;Pasillo central &#45; Nivel 2</title>
<path fill="none" stroke="black" d="M3070.01,-27.08C3138.46,-30.6 3208.7,-27.57 3208.7,-18 3208.7,-8.95 3145.94,-5.75 3081.24,-8.4"/>
<polygon fill="black" stroke="black" points="3081.35,-4.89 3071.52,-8.85 3081.67,-11.88 3081.35,-4.89"/>
</g>
</g>
</svg>
