<?xml version="1.0" encoding="UTF-8" standalone="no"?>
<!DOCTYPE svg PUBLIC "-//W3C//DTD SVG 1.1//EN"
 "http://www.w3.org/Graphics/SVG/1.1/DTD/svg11.dtd">
<!-- Generated by graphviz version 12.2.1 (20241206.2353)
 -->
<!-- Title: G Pages: 1 -->
<svg width="327pt" height="44pt"
 viewBox="0.00 0.00 327.00 44.00" xmlns="http://www.w3.org/2000/svg" xmlns:xlink="http://www.w3.org/1999/xlink">
<g id="graph0" class="graph" transform="scale(1 1) rotate(0) translate(4 40)">
<title>G</title>
<polygon fill="white" stroke="none" points="-4,4 -4,-40 323,-40 323,4 -4,4"/>
<!-- Introducción -->
<g id="node1" class="node">
<title>Introducción</title>
<polygon fill="none" stroke="red" points="85,-36 4,-36 0,-32 0,0 81,0 85,-4 85,-36"/>
<polyline fill="none" stroke="red" points="81,-32 0,-32"/>
<polyline fill="none" stroke="red" points="81,-32 81,0"/>
<polyline fill="none" stroke="red" points="81,-32 85,-36"/>
<text text-anchor="middle" x="42.5" y="-12.95" font-family="Times,serif" font-size="14.00">Introducción</text>
</g>
<!-- Prólogo -->
<g id="node2" class="node">
<title>Prólogo</title>
<polygon fill="none" stroke="red" points="161.88,-36 107.12,-36 103.12,-32 103.12,0 157.88,0 161.88,-4 161.88,-36"/>
<polyline fill="none" stroke="red" points="157.88,-32 103.12,-32"/>
<polyline fill="none" stroke="red" points="157.88,-32 157.88,0"/>
<polyline fill="none" stroke="red" points="157.88,-32 161.88,-36"/>
<text text-anchor="middle" x="132.5" y="-12.95" font-family="Times,serif" font-size="14.00">Prólogo</text>
</g>
<!-- Parte I &#45; El laboratorio -->
<g id="node3" class="node">
<title>Parte I &#45; El laboratorio</title>
<polygon fill="none" stroke="red" points="319,-36 184,-36 180,-32 180,0 315,0 319,-4 319,-36"/>
<polyline fill="none" stroke="red" points="315,-32 180,-32"/>
<polyline fill="none" stroke="red" points="315,-32 315,0"/>
<polyline fill="none" stroke="red" points="315,-32 319,-36"/>
<text text-anchor="middle" x="249.5" y="-12.95" font-family="Times,serif" font-size="14.00">Parte I &#45; El laboratorio</text>
</g>
</g>
</svg>
