<?xml version="1.0" encoding="UTF-8" standalone="no"?>
<!DOCTYPE svg PUBLIC "-//W3C//DTD SVG 1.1//EN"
 "http://www.w3.org/Graphics/SVG/1.1/DTD/svg11.dtd">
<!-- Generated by graphviz version 12.2.1 (20241206.2353)
 -->
<!-- Title: G Pages: 1 -->
<svg width="823pt" height="260pt"
 viewBox="0.00 0.00 822.71 260.00" xmlns="http://www.w3.org/2000/svg" xmlns:xlink="http://www.w3.org/1999/xlink">
<g id="graph0" class="graph" transform="scale(1 1) rotate(0) translate(4 256)">
<title>G</title>
<polygon fill="white" stroke="none" points="-4,4 -4,-256 818.71,-256 818.71,4 -4,4"/>
<!-- Ascensor -->
<g id="node1" class="node">
<title>Ascensor</title>
<ellipse fill="none" stroke="black" cx="45.21" cy="-234" rx="45.21" ry="18"/>
<text text-anchor="middle" x="45.21" y="-228.95" font-family="Times,serif" font-size="14.00">Ascensor</text>
</g>
<!-- Pasillo central &#45; Nivel 1 -->
<g id="node2" class="node">
<title>Pasillo central &#45; Nivel 1</title>
<ellipse fill="none" stroke="black" cx="384.21" cy="-162" rx="99.46" ry="18"/>
<text text-anchor="middle" x="384.21" y="-156.95" font-family="Times,serif" font-size="14.00">Pasillo central &#45; Nivel 1</text>
</g>
<!-- Ascensor&#45;&gt;Pasillo central &#45; Nivel 1 -->
<g id="edge1" class="edge">
<title>Ascensor&#45;&gt;Pasillo central &#45; Nivel 1</title>
<path fill="none" stroke="black" d="M79.02,-221.67C85.67,-219.63 92.63,-217.64 99.21,-216 165.59,-199.44 241.83,-185.53 298.75,-176.11"/>
<polygon fill="black" stroke="black" points="299.07,-179.61 308.37,-174.54 297.94,-172.7 299.07,-179.61"/>
</g>
<!-- Pasillo central &#45; Nivel 2 -->
<g id="node7" class="node">
<title>Pasillo central &#45; Nivel 2</title>
<ellipse fill="none" stroke="black" cx="384.21" cy="-90" rx="99.46" ry="18"/>
<text text-anchor="middle" x="384.21" y="-84.95" font-family="Times,serif" font-size="14.00">Pasillo central &#45; Nivel 2</text>
</g>
<!-- Pasillo central &#45; Nivel 1&#45;&gt;Pasillo central &#45; Nivel 2 -->
<g id="edge6" class="edge">
<title>Pasillo central &#45; Nivel 1&#45;&gt;Pasillo central &#45; Nivel 2</title>
<path fill="none" stroke="black" d="M378.29,-143.7C377.54,-136.41 377.3,-127.73 377.56,-119.54"/>
<polygon fill="black" stroke="black" points="381.05,-119.82 378.22,-109.61 374.07,-119.36 381.05,-119.82"/>
</g>
<!-- Cafetería / Comedor -->
<g id="node3" class="node">
<title>Cafetería / Comedor</title>
<ellipse fill="none" stroke="black" cx="195.21" cy="-234" rx="87.18" ry="18"/>
<text text-anchor="middle" x="195.21" y="-228.95" font-family="Times,serif" font-size="14.00">Cafetería / Comedor</text>
</g>
<!-- Cafetería / Comedor&#45;&gt;Pasillo central &#45; Nivel 1 -->
<g id="edge2" class="edge">
<title>Cafetería / Comedor&#45;&gt;Pasillo central &#45; Nivel 1</title>
<path fill="none" stroke="black" d="M236.22,-217.81C264.07,-207.5 301.16,-193.76 331.24,-182.62"/>
<polygon fill="black" stroke="black" points="332.39,-185.93 340.55,-179.17 329.96,-179.36 332.39,-185.93"/>
</g>
<!-- Oficina del director -->
<g id="node4" class="node">
<title>Oficina del director</title>
<ellipse fill="none" stroke="black" cx="384.21" cy="-234" rx="83.6" ry="18"/>
<text text-anchor="middle" x="384.21" y="-228.95" font-family="Times,serif" font-size="14.00">Oficina del director</text>
</g>
<!-- Oficina del director&#45;&gt;Pasillo central &#45; Nivel 1 -->
<g id="edge3" class="edge">
<title>Oficina del director&#45;&gt;Pasillo central &#45; Nivel 1</title>
<path fill="none" stroke="black" d="M384.21,-215.7C384.21,-208.41 384.21,-199.73 384.21,-191.54"/>
<polygon fill="black" stroke="black" points="387.71,-191.62 384.21,-181.62 380.71,-191.62 387.71,-191.62"/>
</g>
<!-- Vestuarios -->
<g id="node5" class="node">
<title>Vestuarios</title>
<ellipse fill="none" stroke="black" cx="535.21" cy="-234" rx="49.3" ry="18"/>
<text text-anchor="middle" x="535.21" y="-228.95" font-family="Times,serif" font-size="14.00">Vestuarios</text>
</g>
<!-- Vestuarios&#45;&gt;Pasillo central &#45; Nivel 1 -->
<g id="edge4" class="edge">
<title>Vestuarios&#45;&gt;Pasillo central &#45; Nivel 1</title>
<path fill="none" stroke="black" d="M505.74,-219.34C484.03,-209.28 454.12,-195.41 429.41,-183.95"/>
<polygon fill="black" stroke="black" points="431.09,-180.88 420.55,-179.84 428.15,-187.23 431.09,-180.88"/>
</g>
<!-- Oficina de seguridad -->
<g id="node6" class="node">
<title>Oficina de seguridad</title>
<ellipse fill="none" stroke="black" cx="691.21" cy="-234" rx="88.2" ry="18"/>
<text text-anchor="middle" x="691.21" y="-228.95" font-family="Times,serif" font-size="14.00">Oficina de seguridad</text>
</g>
<!-- Oficina de seguridad&#45;&gt;Pasillo central &#45; Nivel 1 -->
<g id="edge5" class="edge">
<title>Oficina de seguridad&#45;&gt;Pasillo central &#45; Nivel 1</title>
<path fill="none" stroke="black" d="M633.83,-219.92C583.33,-208.4 509.62,-191.59 455.38,-179.23"/>
<polygon fill="black" stroke="black" points="456.46,-175.89 445.94,-177.07 454.91,-182.71 456.46,-175.89"/>
</g>
<!-- Pasillo central &#45; Nivel 2&#45;&gt;Pasillo central &#45; Nivel 1 -->
<g id="edge18" class="edge">
<title>Pasillo central &#45; Nivel 2&#45;&gt;Pasillo central &#45; Nivel 1</title>
<path fill="none" stroke="black" d="M390.1,-108.1C390.87,-115.37 391.12,-124.04 390.86,-132.24"/>
<polygon fill="black" stroke="black" points="387.37,-131.98 390.22,-142.19 394.36,-132.43 387.37,-131.98"/>
</g>
<!-- Máquina de salto -->
<g id="node9" class="node">
<title>Máquina de salto</title>
<ellipse fill="none" stroke="black" cx="98.21" cy="-18" rx="75.41" ry="18"/>
<text text-anchor="middle" x="98.21" y="-12.95" font-family="Times,serif" font-size="14.00">Máquina de salto</text>
</g>
<!-- Pasillo central &#45; Nivel 2&#45;&gt;Máquina de salto -->
<g id="edge17" class="edge">
<title>Pasillo central &#45; Nivel 2&#45;&gt;Máquina de salto</title>
<path fill="none" stroke="black" d="M323.26,-75.42C274.34,-63.84 206.14,-47.17 157.63,-34.96"/>
<polygon fill="black" stroke="black" points="158.69,-31.61 148.14,-32.56 156.98,-38.4 158.69,-31.61"/>
</g>
<!-- Generador -->
<g id="node10" class="node">
<title>Generador</title>
<ellipse fill="none" stroke="black" cx="241.21" cy="-18" rx="49.82" ry="18"/>
<text text-anchor="middle" x="241.21" y="-12.95" font-family="Times,serif" font-size="14.00">Generador</text>
</g>
<!-- Pasillo central &#45; Nivel 2&#45;&gt;Generador -->
<g id="edge16" class="edge">
<title>Pasillo central &#45; Nivel 2&#45;&gt;Generador</title>
<path fill="none" stroke="black" d="M345.62,-72.94C324.03,-62.93 297.39,-49.95 276.37,-39.24"/>
<polygon fill="black" stroke="black" points="278.09,-36.19 267.59,-34.72 274.88,-42.41 278.09,-36.19"/>
</g>
<!-- Laboratorio París -->
<g id="node11" class="node">
<title>Laboratorio París</title>
<ellipse fill="none" stroke="black" cx="384.21" cy="-18" rx="75.41" ry="18"/>
<text text-anchor="middle" x="384.21" y="-12.95" font-family="Times,serif" font-size="14.00">Laboratorio París</text>
</g>
<!-- Pasillo central &#45; Nivel 2&#45;&gt;Laboratorio París -->
<g id="edge15" class="edge">
<title>Pasillo central &#45; Nivel 2&#45;&gt;Laboratorio París</title>
<path fill="none" stroke="black" d="M378.29,-71.7C377.54,-64.41 377.3,-55.73 377.56,-47.54"/>
<polygon fill="black" stroke="black" points="381.05,-47.82 378.22,-37.61 374.07,-47.36 381.05,-47.82"/>
</g>
<!-- Laboratorio Berlín -->
<g id="node12" class="node">
<title>Laboratorio Berlín</title>
<ellipse fill="none" stroke="black" cx="557.21" cy="-18" rx="80.01" ry="18"/>
<text text-anchor="middle" x="557.21" y="-12.95" font-family="Times,serif" font-size="14.00">Laboratorio Berlín</text>
</g>
<!-- Pasillo central &#45; Nivel 2&#45;&gt;Laboratorio Berlín -->
<g id="edge14" class="edge">
<title>Pasillo central &#45; Nivel 2&#45;&gt;Laboratorio Berlín</title>
<path fill="none" stroke="black" d="M418.53,-72.76C443.2,-62.31 476.81,-48.68 504.8,-37.76"/>
<polygon fill="black" stroke="black" points="505.75,-41.14 513.81,-34.26 503.22,-34.62 505.75,-41.14"/>
</g>
<!-- Laboratorio Roma -->
<g id="node13" class="node">
<title>Laboratorio Roma</title>
<ellipse fill="none" stroke="black" cx="735.21" cy="-18" rx="79.5" ry="18"/>
<text text-anchor="middle" x="735.21" y="-12.95" font-family="Times,serif" font-size="14.00">Laboratorio Roma</text>
</g>
<!-- Pasillo central &#45; Nivel 2&#45;&gt;Laboratorio Roma -->
<g id="edge13" class="edge">
<title>Pasillo central &#45; Nivel 2&#45;&gt;Laboratorio Roma</title>
<path fill="none" stroke="black" d="M446.02,-75.59C506.81,-63.12 599.43,-44.65 663.43,-32.23"/>
<polygon fill="black" stroke="black" points="664,-35.69 673.15,-30.35 662.67,-28.82 664,-35.69"/>
</g>
<!-- Escaleras -->
<g id="node8" class="node">
<title>Escaleras</title>
<ellipse fill="none" stroke="black" cx="547.21" cy="-162" rx="45.72" ry="18"/>
<text text-anchor="middle" x="547.21" y="-156.95" font-family="Times,serif" font-size="14.00">Escaleras</text>
</g>
<!-- Escaleras&#45;&gt;Pasillo central &#45; Nivel 2 -->
<g id="edge7" class="edge">
<title>Escaleras&#45;&gt;Pasillo central &#45; Nivel 2</title>
<path fill="none" stroke="black" d="M517.31,-148.16C493.43,-137.91 459.52,-123.34 431.9,-111.48"/>
<polygon fill="black" stroke="black" points="433.61,-108.41 423.04,-107.68 430.85,-114.84 433.61,-108.41"/>
</g>
<!-- Máquina de salto&#45;&gt;Pasillo central &#45; Nivel 2 -->
<g id="edge8" class="edge">
<title>Máquina de salto&#45;&gt;Pasillo central &#45; Nivel 2</title>
<path fill="none" stroke="black" d="M152.17,-30.93C199.7,-42.13 268.92,-59.01 319.42,-71.7"/>
<polygon fill="black" stroke="black" points="318.52,-75.08 329.08,-74.13 320.23,-68.29 318.52,-75.08"/>
</g>
<!-- Generador&#45;&gt;Pasillo central &#45; Nivel 2 -->
<g id="edge9" class="edge">
<title>Generador&#45;&gt;Pasillo central &#45; Nivel 2</title>
<path fill="none" stroke="black" d="M273.1,-31.97C294.73,-41.86 323.32,-55.71 346.13,-67.28"/>
<polygon fill="black" stroke="black" points="344.32,-70.28 354.81,-71.72 347.51,-64.05 344.32,-70.28"/>
</g>
<!-- Laboratorio París&#45;&gt;Pasillo central &#45; Nivel 2 -->
<g id="edge10" class="edge">
<title>Laboratorio París&#45;&gt;Pasillo central &#45; Nivel 2</title>
<path fill="none" stroke="black" d="M390.1,-36.1C390.87,-43.37 391.12,-52.04 390.86,-60.24"/>
<polygon fill="black" stroke="black" points="387.37,-59.98 390.22,-70.19 394.36,-60.43 387.37,-59.98"/>
</g>
<!-- Laboratorio Berlín&#45;&gt;Pasillo central &#45; Nivel 2 -->
<g id="edge11" class="edge">
<title>Laboratorio Berlín&#45;&gt;Pasillo central &#45; Nivel 2</title>
<path fill="none" stroke="black" d="M524.07,-34.73C499.92,-44.99 466.77,-58.45 438.77,-69.4"/>
<polygon fill="black" stroke="black" points="437.79,-66.03 429.73,-72.92 440.32,-72.56 437.79,-66.03"/>
</g>
<!-- Laboratorio Roma&#45;&gt;Pasillo central &#45; Nivel 2 -->
<g id="edge12" class="edge">
<title>Laboratorio Roma&#45;&gt;Pasillo central &#45; Nivel 2</title>
<path fill="none" stroke="black" d="M679.44,-31.17C621.13,-43.17 529.23,-61.52 463.43,-74.32"/>
<polygon fill="black" stroke="black" points="462.91,-70.86 453.76,-76.2 464.25,-77.73 462.91,-70.86"/>
</g>
</g>
</svg>
